:SAMPLES-PER-SECOND 30
:FULLY-SPECIFIED
:DEGREES
125
root  32.475 39.0028 21.4072 50.586 83.3226 60.1997
RightUpLeg  -14.7662 -13.6933 -7.5095
RightLeg  6.17721 -7.86095 2.73583
RightFoot  5.06962 -1.03962 7.38119
RightToes  0.000482159 0.542163 -0.142577
Spine  11.93 -2.0713 -6.18359
Spine1  10.3062 -4.66339 5.91832
HEad  27.8513 10.0499 -2.73276
LeftShoulder1  7.09911 -11.3478 -41.4558
LeftArm  -11.4659 14.2137 -28.3644
LeftForeArm  46.88 -53.6477 -11.4159
LeftHand  -0.25398 0.0180481 5.50724
RightShoulder  3.89574 6.98694 31.186
RightArm  5.88685 -19.0778 39.0817
RightForeArm  1.82572 23.364 4.91692
RightHand  -1.72177 4.45352 -20.4496
LeftUpLeg  11.8272 5.00613 -10.4933
LeftLeg  13.9046 15.0144 -1.14476
LeftFoot  -16.8357 0.369209 5.58924
LeftToes  1.06245e-005 4.65855e-005 -8.18503e-006
126
root  34.1281 38.6286 21.4949 46.5994 82.4359 56.2962
RightUpLeg  -12.8773 -10.7936 -8.48805
RightLeg  -1.68661 -18.8309 7.57415
RightFoot  6.82767 -1.68014 10.8136
RightToes  0.000482159 0.542163 -0.142577
Spine  11.0858 -1.77062 -6.27774
Spine1  10.7228 -4.45866 6.39198
HEad  28.7532 9.74874 -2.56013
LeftShoulder1  7.04315 -11.397 -40.9562
LeftArm  -12.091 13.8326 -28.1078
LeftForeArm  47.6635 -55.0491 -12.0584
LeftHand  -0.25398 0.0180481 5.50724
RightShoulder  3.87825 6.96114 31.1089
RightArm  4.63541 -19.883 38.4216
RightForeArm  1.72974 22.5895 4.88444
RightHand  -1.72868 4.51167 -20.4134
LeftUpLeg  14.0204 7.33578 -10.4107
LeftLeg  15.4663 13.736 -0.589948
LeftFoot  -19.2523 0.457027 4.90467
LeftToes  1.06245e-005 4.65855e-005 -8.18503e-006
127
root  35.7368 38.2838 21.5376 38.9955 81.5117 48.6507
RightUpLeg  -12.8705 -11.1673 -7.0256
RightLeg  -2.26681 -26.8662 9.39801
RightFoot  7.44877 -1.05239 6.67902
RightToes  0.000482159 0.542163 -0.142577
Spine  10.5256 -1.57633 -5.3909
Spine1  11.1952 -4.31062 6.81556
HEad  29.4816 9.99619 -2.56603
LeftShoulder1  6.98399 -11.2612 -40.9886
LeftArm  -12.8942 13.8595 -27.5799
LeftForeArm  47.7772 -55.4542 -12.263
LeftHand  -0.25398 0.0180481 5.50724
RightShoulder  3.90048 7.00189 31.1774
RightArm  2.79546 -19.9865 37.5499
RightForeArm  2.32783 21.1334 4.94824
RightHand  -1.69171 4.46422 -20.0841
LeftUpLeg  15.9455 12.5276 -9.22739
LeftLeg  17.489 10.3587 0.740058
LeftFoot  -21.3165 0.471937 3.98555
LeftToes  1.06245e-005 4.65855e-005 -8.18503e-006
128
root  37.2982 38.0209 21.5137 29.2783 80.9779 38.9227
RightUpLeg  -14.7235 -12.8445 -4.3303
RightLeg  3.79956 -29.6488 7.07502
RightFoot  7.44509 0.981638 -5.63862
RightToes  0.000482159 0.542163 -0.142577
Spine  10.6266 -1.84724 -2.91753
Spine1  11.6223 -4.4471 6.84871
HEad  29.9594 10.6585 -2.90705
LeftShoulder1  6.96506 -11.0274 -41.5767
LeftArm  -13.5738 14.3218 -26.6879
LeftForeArm  47.5609 -54.9827 -12.0369
LeftHand  -0.25398 0.0180481 5.50724
RightShoulder  3.89256 6.92557 31.3751
RightArm  -0.0782292 -19.6405 36.602
RightForeArm  3.37608 19.8411 5.07049
RightHand  -1.67019 4.47389 -19.8199
LeftUpLeg  17.2644 19.2254 -6.34151
LeftLeg  21.1052 4.91486 2.32027
LeftFoot  -22.5641 0.142969 0.159154
LeftToes  1.06245e-005 4.65855e-005 -8.18503e-006
129
root  38.8801 37.7442 21.4381 14.1624 80.2418 23.9989
RightUpLeg  -18.2269 -20.6377 1.41771
RightLeg  13.5071 -20.55 1.43598
RightFoot  6.34599 2.77038 -17.4208
RightToes  0.000482159 0.542163 -0.142577
Spine  11.5501 -2.40395 1.70231
Spine1  11.4329 -4.22893 5.5764
HEad  30.1902 11.0997 -3.55698
LeftShoulder1  7.02877 -10.962 -42.1879
LeftArm  -13.9005 15.1411 -26.0712
LeftForeArm  47.3536 -53.3462 -11.2509
LeftHand  -0.25398 0.0180481 5.50724
RightShoulder  3.87946 6.78279 31.7673
RightArm  -3.43187 -19.5047 35.6713
RightForeArm  3.15959 19.5952 5.026
RightHand  -1.70268 4.59372 -19.9603
LeftUpLeg  15.9744 20.2468 -3.48994
LeftLeg  29.775 4.68617 3.29778
LeftFoot  -20.7325 -0.389483 -6.77337
LeftToes  1.06245e-005 4.65855e-005 -8.18503e-006
130
root  40.3858 37.458 21.3364 -3.64884 78.3917 6.04972
RightUpLeg  -22.0608 -28.7859 8.76191
RightLeg  21.2641 -8.32001 -3.12525
RightFoot  3.87707 2.84107 -20.6964
RightToes  0.000482159 0.542163 -0.142577
Spine  13.0788 -2.92245 7.68652
Spine1  10.7099 -3.49571 3.83649
HEad  29.8414 11.3906 -4.46233
LeftShoulder1  7.10862 -11.0609 -42.392
LeftArm  -14.132 16.0992 -26.5644
LeftForeArm  47.2478 -50.933 -10.1764
LeftHand  -0.25398 0.0180481 5.50724
RightShoulder  3.84707 6.66578 31.8826
RightArm  -6.04145 -19.5014 35.0378
RightForeArm  0.747741 20.52 4.9376
RightHand  -1.77295 4.76273 -20.4253
LeftUpLeg  10.8744 21.1159 0.188883
LeftLeg  43.3666 4.55278 5.03882
LeftFoot  -11.5814 0.00896034 -11.2669
LeftToes  1.06245e-005 4.65855e-005 -8.18503e-006
